Oswald--500.ufo
<glyph name="quotedbl" format="1">
  <advance width="767"/>
  <unicode hex="0022"/>
  <outline>
    <contour>
      <point x="197" y="1105" type="line"/>
      <point x="334" y="1105" type="line"/>
      <point x="494" y="1658" type="line"/>
      <point x="255" y="1658" type="line"/>
    </contour>
    <contour>
      <point x="535" y="1105" type="line"/>
      <point x="672" y="1105" type="line"/>
      <point x="832" y="1658" type="line"/>
      <point x="593" y="1658" type="line"/>
    </contour>
  </outline>
</glyph>
<glyph name="numbersign" format="1">
  <advance width="1039"/>
  <unicode hex="0023"/>
  <outline>
    <contour>
      <point x="41" y="0" type="line"/>
      <point x="270" y="0" type="line"/>
      <point x="407" y="577" type="line"/>
      <point x="577" y="577" type="line"/>
      <point x="440" y="0" type="line"/>
      <point x="670" y="0" type="line"/>
      <point x="807" y="577" type="line"/>
      <point x="973" y="577" type="line"/>
      <point x="995" y="766" type="line"/>
      <point x="854" y="766" type="line"/>
      <point x="902" y="965" type="line"/>
      <point x="1017" y="965" type="line"/>
      <point x="1039" y="1156" type="line"/>
      <point x="950" y="1156" type="line"/>
      <point x="1070" y="1658" type="line"/>
      <point x="841" y="1658" type="line"/>
      <point x="721" y="1156" type="line"/>
      <point x="551" y="1156" type="line"/>
      <point x="670" y="1658" type="line"/>
      <point x="440" y="1658" type="line"/>
      <point x="320" y="1156" type="line"/>
      <point x="149" y="1156" type="line"/>
      <point x="128" y="965" type="line"/>
      <point x="271" y="965" type="line"/>
      <point x="225" y="766" type="line"/>
      <point x="106" y="766" type="line"/>
      <point x="83" y="577" type="line"/>
      <point x="177" y="577" type="line"/>
    </contour>
    <contour>
      <point x="453" y="766" type="line"/>
      <point x="501" y="965" type="line"/>
      <point x="672" y="965" type="line"/>
      <point x="625" y="766" type="line"/>
    </contour>
  </outline>
</glyph>
<glyph name="plus" format="1">
  <advance width="887"/>
  <unicode hex="002B"/>
  <outline>
    <contour>
      <point x="337" y="424" type="line"/>
      <point x="531" y="424" type="line"/>
      <point x="566" y="759" type="line"/>
      <point x="864" y="759" type="line"/>
      <point x="884" y="944" type="line"/>
      <point x="586" y="944" type="line"/>
      <point x="620" y="1275" type="line"/>
      <point x="426" y="1275" type="line"/>
      <point x="392" y="944" type="line"/>
      <point x="102" y="944" type="line"/>
      <point x="82" y="759" type="line"/>
      <point x="372" y="759" type="line"/>
    </contour>
  </outline>
</glyph>
<glyph name="three" format="1">
  <advance width="1055"/>
  <unicode hex="0033"/>
  <outline>
    <contour>
      <point x="474" y="-22" type="curve" smooth="yes"/>
      <point x="785" y="-22"/>
      <point x="925" y="179"/>
      <point x="957" y="479" type="curve" smooth="yes"/>
      <point x="980" y="701"/>
      <point x="910" y="833"/>
      <point x="775" y="882" type="curve"/>
      <point x="911" y="921"/>
      <point x="1016" y="1047"/>
      <point x="1037" y="1239" type="curve" smooth="yes"/>
      <point x="1066" y="1519"/>
      <point x="930" y="1678"/>
      <point x="651" y="1678" type="curve" smooth="yes"/>
      <point x="376" y="1678"/>
      <point x="204" y="1515"/>
      <point x="175" y="1234" type="curve" smooth="yes"/>
      <point x="167" y="1159" type="line"/>
      <point x="445" y="1159" type="line"/>
      <point x="446" y="1168"/>
      <point x="450" y="1205"/>
      <point x="451" y="1213" type="curve" smooth="yes"/>
      <point x="468" y="1349"/>
      <point x="501" y="1453"/>
      <point x="629" y="1453" type="curve" smooth="yes"/>
      <point x="750" y="1453"/>
      <point x="774" y="1369"/>
      <point x="760" y="1231" type="curve" smooth="yes"/>
      <point x="742" y="1065"/>
      <point x="683" y="998"/>
      <point x="535" y="993" type="curve" smooth="yes"/>
      <point x="499" y="993" type="line"/>
      <point x="473" y="755" type="line"/>
      <point x="481" y="755"/>
      <point x="508" y="755"/>
      <point x="514" y="754" type="curve" smooth="yes"/>
      <point x="663" y="745"/>
      <point x="697" y="642"/>
      <point x="680" y="475" type="curve" smooth="yes"/>
      <point x="663" y="318"/>
      <point x="636" y="209"/>
      <point x="501" y="209" type="curve" smooth="yes"/>
      <point x="373" y="209"/>
      <point x="358" y="304"/>
      <point x="372" y="457" type="curve" smooth="yes"/>
      <point x="372" y="466"/>
      <point x="375" y="493"/>
      <point x="376" y="502" type="curve"/>
      <point x="98" y="502" type="line"/>
      <point x="92" y="443" type="line"/>
      <point x="62" y="157"/>
      <point x="173" y="-22"/>
    </contour>
  </outline>
</glyph>
<glyph name="five" format="1">
  <advance width="1055"/>
  <unicode hex="0035"/>
  <outline>
    <contour>
      <point x="481" y="-22" type="curve" smooth="yes"/>
      <point x="838" y="-22"/>
      <point x="942" y="246"/>
      <point x="978" y="588" type="curve" smooth="yes"/>
      <point x="1010" y="893"/>
      <point x="929" y="1100"/>
      <point x="661" y="1090" type="curve" smooth="yes"/>
      <point x="565" y="1086"/>
      <point x="480" y="1055"/>
      <point x="430" y="1006" type="curve"/>
      <point x="488" y="1401" type="line"/>
      <point x="999" y="1401" type="line"/>
      <point x="1026" y="1658" type="line"/>
      <point x="276" y="1658" type="line"/>
      <point x="168" y="741" type="line"/>
      <point x="407" y="741" type="line"/>
      <point x="437" y="819"/>
      <point x="498" y="883"/>
      <point x="581" y="883" type="curve" smooth="yes"/>
      <point x="726" y="883"/>
      <point x="724" y="751"/>
      <point x="705" y="563" type="curve" smooth="yes"/>
      <point x="683" y="352"/>
      <point x="664" y="194"/>
      <point x="514" y="192" type="curve" smooth="yes"/>
      <point x="373" y="191"/>
      <point x="371" y="323"/>
      <point x="388" y="479" type="curve"/>
      <point x="114" y="479" type="line"/>
      <point x="82" y="173"/>
      <point x="151" y="-22"/>
    </contour>
  </outline>
</glyph>
<glyph name="nine" format="1">
  <advance width="1055"/>
  <unicode hex="0039"/>
  <outline>
    <contour>
      <point x="471" y="-20" type="curve" smooth="yes"/>
      <point x="810" y="-20"/>
      <point x="931" y="248"/>
      <point x="965" y="573" type="curve" smooth="yes"/>
      <point x="1024" y="1136" type="line" smooth="yes"/>
      <point x="1056" y="1440"/>
      <point x="954" y="1677"/>
      <point x="650" y="1677" type="curve" smooth="yes"/>
      <point x="337" y="1677"/>
      <point x="195" y="1439"/>
      <point x="162" y="1121" type="curve" smooth="yes"/>
      <point x="134" y="850"/>
      <point x="196" y="636"/>
      <point x="467" y="639" type="curve" smooth="yes"/>
      <point x="574" y="640"/>
      <point x="656" y="680"/>
      <point x="702" y="747" type="curve"/>
      <point x="681" y="546" type="line" smooth="yes"/>
      <point x="655" y="302"/>
      <point x="604" y="200"/>
      <point x="495" y="200" type="curve" smooth="yes"/>
      <point x="372" y="200"/>
      <point x="355" y="281"/>
      <point x="370" y="420" type="curve"/>
      <point x="100" y="420" type="line"/>
      <point x="99" y="417"/>
      <point x="98" y="405"/>
      <point x="97" y="401" type="curve"/>
      <point x="73" y="132"/>
      <point x="187" y="-20"/>
    </contour>
    <contour>
      <point x="564" y="849" type="curve" smooth="yes"/>
      <point x="414" y="849"/>
      <point x="430" y="1001"/>
      <point x="447" y="1170" type="curve"/>
      <point x="465" y="1328"/>
      <point x="505" y="1460"/>
      <point x="627" y="1460" type="curve" smooth="yes"/>
      <point x="749" y="1460"/>
      <point x="763" y="1328"/>
      <point x="749" y="1197" type="curve" smooth="yes"/>
      <point x="723" y="948" type="line"/>
      <point x="692" y="900"/>
      <point x="641" y="849"/>
    </contour>
  </outline>
</glyph>
<glyph name="greater" format="1">
  <advance width="787"/>
  <unicode hex="003E"/>
  <outline>
    <contour>
      <point x="77" y="114" type="line"/>
      <point x="731" y="538" type="line"/>
      <point x="757" y="785" type="line"/>
      <point x="192" y="1210" type="line"/>
      <point x="165" y="952" type="line"/>
      <point x="542" y="663" type="line"/>
      <point x="104" y="371" type="line"/>
    </contour>
  </outline>
</glyph>
<glyph name="at" format="1">
  <advance width="1910"/>
  <unicode hex="0040"/>
  <outline>
    <contour>
      <point x="890" y="-276" type="curve" smooth="yes"/>
      <point x="1034" y="-276"/>
      <point x="1191" y="-251"/>
      <point x="1346" y="-209" type="curve"/>
      <point x="1326" y="-24" type="line"/>
      <point x="1194" y="-64"/>
      <point x="1045" y="-85"/>
      <point x="936" y="-85" type="curve" smooth="yes"/>
      <point x="489" y="-85"/>
      <point x="292" y="176"/>
      <point x="361" y="626" type="curve"/>
      <point x="429" y="1120"/>
      <point x="724" y="1468"/>
      <point x="1173" y="1468" type="curve" smooth="yes"/>
      <point x="1598" y="1468"/>
      <point x="1723" y="1163"/>
      <point x="1672" y="823" type="curve" smooth="yes"/>
      <point x="1637" y="564"/>
      <point x="1484" y="336"/>
      <point x="1326" y="347" type="curve"/>
      <point x="1271" y="352"/>
      <point x="1293" y="438"/>
      <point x="1308" y="499" type="curve" smooth="yes"/>
      <point x="1492" y="1228" type="line"/>
      <point x="1285" y="1228" type="line"/>
      <point x="1257" y="1158" type="line"/>
      <point x="1235" y="1188"/>
      <point x="1193" y="1244"/>
      <point x="1128" y="1244" type="curve" smooth="yes"/>
      <point x="819" y="1244"/>
      <point x="611" y="867"/>
      <point x="579" y="594" type="curve" smooth="yes"/>
      <point x="553" y="378"/>
      <point x="644" y="185"/>
      <point x="867" y="205" type="curve" smooth="yes"/>
      <point x="975" y="215"/>
      <point x="1042" y="291"/>
      <point x="1074" y="369" type="curve"/>
      <point x="1079" y="258"/>
      <point x="1169" y="195"/>
      <point x="1286" y="195" type="curve" smooth="yes"/>
      <point x="1620" y="195"/>
      <point x="1827" y="527"/>
      <point x="1867" y="839" type="curve" smooth="yes"/>
      <point x="1930" y="1265"/>
      <point x="1742" y="1658"/>
      <point x="1212" y="1658" type="curve" smooth="yes"/>
      <point x="645" y="1658"/>
      <point x="226" y="1299"/>
      <point x="134" y="619" type="curve"/>
      <point x="48" y="41"/>
      <point x="355" y="-276"/>
    </contour>
    <contour>
      <point x="945" y="403" type="curve"/>
      <point x="843" y="388"/>
      <point x="814" y="487"/>
      <point x="826" y="593" type="curve" smooth="yes"/>
      <point x="850" y="823"/>
      <point x="997" y="1043"/>
      <point x="1160" y="1043" type="curve" smooth="yes"/>
      <point x="1174" y="1043"/>
      <point x="1200" y="1039"/>
      <point x="1208" y="1028" type="curve" smooth="yes"/>
      <point x="1091" y="556" type="line"/>
      <point x="1058" y="451"/>
      <point x="988" y="411"/>
    </contour>
  </outline>
</glyph>
<glyph name="F" format="1">
  <advance width="835"/>
  <unicode hex="0046"/>
  <outline>
    <contour>
      <point x="74" y="0" type="line"/>
      <point x="370" y="0" type="line"/>
      <point x="449" y="756" type="line"/>
      <point x="753" y="756" type="line"/>
      <point x="775" y="964" type="line"/>
      <point x="471" y="964" type="line"/>
      <point x="523" y="1453" type="line"/>
      <point x="905" y="1453" type="line"/>
      <point x="926" y="1658" type="line"/>
      <point x="248" y="1658" type="line"/>
    </contour>
  </outline>
</glyph>
<glyph name="Q" format="1">
  <advance width="1146"/>
  <unicode hex="0051"/>
  <outline>
    <contour>
      <point x="836" y="-343" type="curve"/>
      <point x="978" y="-212" type="line"/>
      <point x="929" y="-173"/>
      <point x="822" y="-60"/>
      <point x="770" y="28" type="curve"/>
      <point x="945" y="108"/>
      <point x="1028" y="284"/>
      <point x="1053" y="526" type="curve" smooth="yes"/>
      <point x="1118" y="1139" type="line" smooth="yes"/>
      <point x="1154" y="1476"/>
      <point x="1050" y="1677"/>
      <point x="699" y="1677" type="curve" smooth="yes"/>
      <point x="346" y="1677"/>
      <point x="202" y="1478"/>
      <point x="167" y="1139" type="curve" smooth="yes"/>
      <point x="102" y="526" type="line" smooth="yes"/>
      <point x="67" y="186"/>
      <point x="168" y="-20"/>
      <point x="520" y="-20" type="curve" smooth="yes"/>
      <point x="532" y="-20"/>
      <point x="544" y="-20"/>
      <point x="555" y="-19" type="curve"/>
      <point x="621" y="-138"/>
      <point x="749" y="-286"/>
    </contour>
    <contour>
      <point x="543" y="200" type="curve" smooth="yes"/>
      <point x="390" y="200"/>
      <point x="380" y="311"/>
      <point x="396" y="458" type="curve" smooth="yes"/>
      <point x="474" y="1206" type="line" smooth="yes"/>
      <point x="489" y="1353"/>
      <point x="522" y="1458"/>
      <point x="676" y="1458" type="curve" smooth="yes"/>
      <point x="829" y="1458"/>
      <point x="840" y="1353"/>
      <point x="825" y="1206" type="curve" smooth="yes"/>
      <point x="747" y="458" type="line" smooth="yes"/>
      <point x="731" y="311"/>
      <point x="697" y="200"/>
    </contour>
  </outline>
</glyph>
<glyph name="S" format="1">
  <advance width="1003"/>
  <unicode hex="0053"/>
  <outline>
    <contour>
      <point x="486" y="-20" type="curve" smooth="yes"/>
      <point x="732" y="-20"/>
      <point x="917" y="144"/>
      <point x="942" y="386" type="curve" smooth="yes"/>
      <point x="965" y="605"/>
      <point x="866" y="749"/>
      <point x="748" y="865" type="curve" smooth="yes"/>
      <point x="545" y="1059" type="line" smooth="yes"/>
      <point x="476" y="1126"/>
      <point x="432" y="1184"/>
      <point x="443" y="1298" type="curve" smooth="yes"/>
      <point x="453" y="1390"/>
      <point x="508" y="1448"/>
      <point x="603" y="1454" type="curve" smooth="yes"/>
      <point x="743" y="1463"/>
      <point x="753" y="1329"/>
      <point x="744" y="1178" type="curve"/>
      <point x="1002" y="1230" type="line"/>
      <point x="1009" y="1481"/>
      <point x="937" y="1680"/>
      <point x="630" y="1677" type="curve" smooth="yes"/>
      <point x="371" y="1675"/>
      <point x="193" y="1529"/>
      <point x="166" y="1270" type="curve" smooth="yes"/>
      <point x="146" y="1079"/>
      <point x="207" y="973"/>
      <point x="311" y="872" type="curve" smooth="yes"/>
      <point x="514" y="677" type="line" smooth="yes"/>
      <point x="608" y="586"/>
      <point x="674" y="512"/>
      <point x="659" y="367" type="curve" smooth="yes"/>
      <point x="649" y="273"/>
      <point x="601" y="208"/>
      <point x="503" y="208" type="curve" smooth="yes"/>
      <point x="363" y="208"/>
      <point x="331" y="353"/>
      <point x="345" y="540" type="curve"/>
      <point x="81" y="484" type="line"/>
      <point x="61" y="164"/>
      <point x="185" y="-20"/>
    </contour>
  </outline>
</glyph>
<glyph name="W" format="1">
  <advance width="1473"/>
  <unicode hex="0057"/>
  <outline>
    <contour>
      <point x="259" y="0" type="line"/>
      <point x="499" y="0" type="line"/>
      <point x="807" y="1118" type="line"/>
      <point x="882" y="0" type="line"/>
      <point x="1115" y="0" type="line"/>
      <point x="1530" y="1658" type="line"/>
      <point x="1286" y="1658" type="line"/>
      <point x="1033" y="577" type="line"/>
      <point x="961" y="1658" type="line"/>
      <point x="762" y="1658" type="line"/>
      <point x="466" y="578" type="line"/>
      <point x="440" y="1658" type="line"/>
      <point x="191" y="1658" type="line"/>
    </contour>
  </outline>
</glyph>
<glyph name="X" format="1">
  <advance width="1018"/>
  <unicode hex="0058"/>
  <outline>
    <contour>
      <point x="-29" y="0" type="line"/>
      <point x="231" y="0" type="line"/>
      <point x="496" y="562" type="line"/>
      <point x="672" y="0" type="line"/>
      <point x="948" y="0" type="line"/>
      <point x="689" y="830" type="line"/>
      <point x="1099" y="1658" type="line"/>
      <point x="838" y="1658" type="line"/>
      <point x="595" y="1138" type="line"/>
      <point x="431" y="1658" type="line"/>
      <point x="154" y="1658" type="line"/>
      <point x="398" y="879" type="line"/>
    </contour>
  </outline>
</glyph>
<glyph name="Z" format="1">
  <advance width="869"/>
  <unicode hex="005A"/>
  <outline>
    <contour>
      <point x="25" y="0" type="line"/>
      <point x="773" y="0" type="line"/>
      <point x="795" y="205" type="line"/>
      <point x="328" y="205" type="line"/>
      <point x="931" y="1515" type="line"/>
      <point x="946" y="1658" type="line"/>
      <point x="221" y="1658" type="line"/>
      <point x="200" y="1453" type="line"/>
      <point x="621" y="1453" type="line"/>
      <point x="45" y="195" type="line"/>
    </contour>
  </outline>
</glyph>
<glyph name="bracketleft" format="1">
  <advance width="705"/>
  <unicode hex="005B"/>
  <outline>
    <contour>
      <point x="27" y="-387" type="line"/>
      <point x="518" y="-387" type="line"/>
      <point x="531" y="-263" type="line"/>
      <point x="288" y="-263" type="line"/>
      <point x="477" y="1535" type="line"/>
      <point x="721" y="1535" type="line"/>
      <point x="733" y="1658" type="line"/>
      <point x="243" y="1658" type="line"/>
    </contour>
  </outline>
</glyph>
<glyph name="asciicircum" format="1">
  <advance width="951"/>
  <unicode hex="005E"/>
  <outline>
    <contour>
      <point x="121" y="980" type="line"/>
      <point x="369" y="980" type="line"/>
      <point x="576" y="1439" type="line"/>
      <point x="687" y="980" type="line"/>
      <point x="936" y="980" type="line"/>
      <point x="723" y="1658" type="line"/>
      <point x="475" y="1658" type="line"/>
    </contour>
  </outline>
</glyph>
<glyph name="e" format="1">
  <advance width="909"/>
  <unicode hex="0065"/>
  <outline>
    <contour>
      <point x="412" y="-18" type="curve" smooth="yes"/>
      <point x="655" y="-18"/>
      <point x="787" y="119"/>
      <point x="812" y="361" type="curve" smooth="yes"/>
      <point x="820" y="431" type="line"/>
      <point x="559" y="431" type="line"/>
      <point x="549" y="340" type="line"/>
      <point x="540" y="246"/>
      <point x="515" y="181"/>
      <point x="431" y="181" type="curve" smooth="yes"/>
      <point x="327" y="181"/>
      <point x="338" y="285"/>
      <point x="350" y="404" type="curve" smooth="yes"/>
      <point x="369" y="578" type="line"/>
      <point x="836" y="578" type="line"/>
      <point x="852" y="726" type="line" smooth="yes"/>
      <point x="884" y="1024"/>
      <point x="830" y="1202"/>
      <point x="538" y="1202" type="curve" smooth="yes"/>
      <point x="263" y="1202"/>
      <point x="145" y="1040"/>
      <point x="115" y="754" type="curve" smooth="yes"/>
      <point x="80" y="428" type="line" smooth="yes"/>
      <point x="51" y="146"/>
      <point x="130" y="-18"/>
    </contour>
    <contour>
      <point x="384" y="717" type="line"/>
      <point x="391" y="792" type="line" smooth="yes"/>
      <point x="408" y="950"/>
      <point x="434" y="1003"/>
      <point x="516" y="1003" type="curve" smooth="yes"/>
      <point x="596" y="1003"/>
      <point x="613" y="948"/>
      <point x="601" y="830" type="curve" smooth="yes"/>
      <point x="589" y="717" type="line"/>
    </contour>
  </outline>
</glyph>
<glyph name="h" format="1">
  <advance width="973"/>
  <unicode hex="0068"/>
  <outline>
    <contour>
      <point x="62" y="0" type="line"/>
      <point x="336" y="0" type="line"/>
      <point x="434" y="936" type="line"/>
      <point x="483" y="970"/>
      <point x="533" y="995"/>
      <point x="574" y="996" type="curve" smooth="yes"/>
      <point x="641" y="996"/>
      <point x="649" y="952"/>
      <point x="641" y="885" type="curve" smooth="yes"/>
      <point x="549" y="0" type="line"/>
      <point x="823" y="0" type="line"/>
      <point x="922" y="948" type="line" smooth="yes"/>
      <point x="936" y="1072"/>
      <point x="903" y="1202"/>
      <point x="758" y="1202" type="curve" smooth="yes"/>
      <point x="642" y="1202"/>
      <point x="541" y="1147"/>
      <point x="449" y="1068" type="curve"/>
      <point x="510" y="1658" type="line"/>
      <point x="236" y="1658" type="line"/>
    </contour>
  </outline>
</glyph>
<glyph name="p" format="1">
  <advance width="970"/>
  <unicode hex="0070"/>
  <outline>
    <contour>
      <point x="17" y="-390" type="line"/>
      <point x="291" y="-390" type="line"/>
      <point x="341" y="88" type="line"/>
      <point x="396" y="27"/>
      <point x="466" y="-18"/>
      <point x="548" y="-18" type="curve" smooth="yes"/>
      <point x="759" y="-18"/>
      <point x="853" y="189"/>
      <point x="877" y="420" type="curve" smooth="yes"/>
      <point x="916" y="797" type="line" smooth="yes"/>
      <point x="931" y="941"/>
      <point x="919" y="1200"/>
      <point x="695" y="1202" type="curve" smooth="yes"/>
      <point x="602" y="1203"/>
      <point x="518" y="1158"/>
      <point x="447" y="1093" type="curve"/>
      <point x="456" y="1184" type="line"/>
      <point x="182" y="1184" type="line"/>
    </contour>
    <contour>
      <point x="477" y="180" type="curve" smooth="yes"/>
      <point x="427" y="181"/>
      <point x="387" y="197"/>
      <point x="354" y="219" type="curve"/>
      <point x="433" y="962" type="line"/>
      <point x="471" y="987"/>
      <point x="514" y="1008"/>
      <point x="558" y="1009" type="curve" smooth="yes"/>
      <point x="647" y="1011"/>
      <point x="654" y="911"/>
      <point x="643" y="807" type="curve" smooth="yes"/>
      <point x="601" y="413" type="line" smooth="yes"/>
      <point x="589" y="290"/>
      <point x="567" y="180"/>
    </contour>
  </outline>
</glyph>
<glyph name="t" format="1">
  <advance width="676"/>
  <unicode hex="0074"/>
  <outline>
    <contour>
      <point x="385" y="-16" type="curve" smooth="yes"/>
      <point x="464" y="-18"/>
      <point x="519" y="-9"/>
      <point x="573" y="-3" type="curve"/>
      <point x="595" y="207" type="line"/>
      <point x="575" y="204"/>
      <point x="538" y="200"/>
      <point x="510" y="200" type="curve" smooth="yes"/>
      <point x="434" y="201"/>
      <point x="406" y="234"/>
      <point x="414" y="313" type="curve" smooth="yes"/>
      <point x="487" y="1002" type="line"/>
      <point x="668" y="1002" type="line"/>
      <point x="687" y="1184" type="line"/>
      <point x="506" y="1184" type="line"/>
      <point x="542" y="1531" type="line"/>
      <point x="267" y="1531" type="line"/>
      <point x="230" y="1184" type="line"/>
      <point x="114" y="1184" type="line"/>
      <point x="95" y="1002" type="line"/>
      <point x="212" y="1002" type="line"/>
      <point x="140" y="326" type="line" smooth="yes"/>
      <point x="121" y="126"/>
      <point x="166" y="-12"/>
    </contour>
  </outline>
</glyph>
<glyph name="y" format="1">
  <advance width="849"/>
  <unicode hex="0079"/>
  <outline>
    <contour>
      <point x="28" y="-314" type="line"/>
      <point x="61" y="-314" type="line"/>
      <point x="273" y="-315"/>
      <point x="429" y="-256"/>
      <point x="493" y="-61" type="curve" smooth="yes"/>
      <point x="905" y="1184" type="line"/>
      <point x="635" y="1184" type="line"/>
      <point x="423" y="397" type="line"/>
      <point x="358" y="1184" type="line"/>
      <point x="88" y="1184" type="line"/>
      <point x="236" y="186" type="line" smooth="yes"/>
      <point x="243" y="137"/>
      <point x="254" y="62"/>
      <point x="258" y="14" type="curve"/>
      <point x="267" y="-96"/>
      <point x="216" y="-115"/>
      <point x="49" y="-115" type="curve"/>
    </contour>
  </outline>
</glyph>
<glyph name="asciitilde" format="1">
  <advance width="956"/>
  <unicode hex="007E"/>
  <outline>
    <contour>
      <point x="664" y="715" type="curve" smooth="yes"/>
      <point x="750" y="715"/>
      <point x="872" y="821"/>
      <point x="931" y="900" type="curve"/>
      <point x="846" y="1013" type="line"/>
      <point x="790" y="967"/>
      <point x="732" y="924"/>
      <point x="692" y="924" type="curve" smooth="yes"/>
      <point x="606" y="924"/>
      <point x="492" y="1042"/>
      <point x="383" y="1042" type="curve" smooth="yes"/>
      <point x="304" y="1042"/>
      <point x="179" y="943"/>
      <point x="117" y="874" type="curve"/>
      <point x="196" y="749" type="line"/>
      <point x="249" y="798"/>
      <point x="317" y="835"/>
      <point x="352" y="835" type="curve" smooth="yes"/>
      <point x="439" y="835"/>
      <point x="554" y="715"/>
    </contour>
  </outline>
</glyph>
<glyph name="cent" format="1">
  <advance width="849"/>
  <unicode hex="00A2"/>
  <outline>
    <contour>
      <point x="323" y="-195" type="line"/>
      <point x="400" y="-195" type="line"/>
      <point x="419" y="-18" type="line"/>
      <point x="664" y="-14"/>
      <point x="776" y="115"/>
      <point x="801" y="352" type="curve"/>
      <point x="812" y="461" type="line"/>
      <point x="557" y="461" type="line"/>
      <point x="544" y="340" type="line"/>
      <point x="534" y="243"/>
      <point x="512" y="181"/>
      <point x="430" y="181" type="curve" smooth="yes"/>
      <point x="357" y="181"/>
      <point x="331" y="218"/>
      <point x="348" y="379" type="curve" smooth="yes"/>
      <point x="392" y="799" type="line" smooth="yes"/>
      <point x="408" y="953"/>
      <point x="434" y="1003"/>
      <point x="516" y="1003" type="curve" smooth="yes"/>
      <point x="589" y="1003"/>
      <point x="609" y="961"/>
      <point x="596" y="838" type="curve" smooth="yes"/>
      <point x="586" y="742" type="line"/>
      <point x="842" y="742" type="line"/>
      <point x="852" y="836" type="line" smooth="yes"/>
      <point x="877" y="1078"/>
      <point x="796" y="1197"/>
      <point x="547" y="1201" type="curve"/>
      <point x="565" y="1376" type="line"/>
      <point x="488" y="1376" type="line"/>
      <point x="469" y="1199" type="line"/>
      <point x="237" y="1173"/>
      <point x="139" y="1010"/>
      <point x="114" y="759" type="curve" smooth="yes"/>
      <point x="78" y="425" type="line" smooth="yes"/>
      <point x="52" y="174"/>
      <point x="114" y="10"/>
      <point x="342" y="-15" type="curve"/>
    </contour>
  </outline>
</glyph>
<glyph name="ordfeminine" format="1">
  <advance width="950"/>
  <unicode hex="00AA"/>
  <outline>
    <contour>
      <point x="387" y="645" type="curve"/>
      <point x="489" y="645"/>
      <point x="572" y="711"/>
      <point x="617" y="793" type="curve"/>
      <point x="609" y="659" type="line"/>
      <point x="829" y="659" type="line"/>
      <point x="897" y="1308" type="line" smooth="yes"/>
      <point x="921" y="1538"/>
      <point x="865" y="1683"/>
      <point x="633" y="1683" type="curve" smooth="yes"/>
      <point x="426" y="1683"/>
      <point x="292" y="1551"/>
      <point x="266" y="1329" type="curve"/>
      <point x="495" y="1326" type="line"/>
      <point x="510" y="1424"/>
      <point x="532" y="1494"/>
      <point x="601" y="1494" type="curve" smooth="yes"/>
      <point x="661" y="1494"/>
      <point x="666" y="1427"/>
      <point x="660" y="1358" type="curve" smooth="yes"/>
      <point x="648" y="1247" type="line"/>
      <point x="471" y="1188"/>
      <point x="212" y="1132"/>
      <point x="185" y="880" type="curve" smooth="yes"/>
      <point x="172" y="752"/>
      <point x="249" y="646"/>
    </contour>
    <contour>
      <point x="498" y="833" type="curve" smooth="yes"/>
      <point x="450" y="833"/>
      <point x="424" y="872"/>
      <point x="431" y="933" type="curve" smooth="yes"/>
      <point x="440" y="1027"/>
      <point x="540" y="1098"/>
      <point x="637" y="1146" type="curve"/>
      <point x="612" y="908" type="line"/>
      <point x="588" y="869"/>
      <point x="543" y="833"/>
    </contour>
  </outline>
</glyph>
<glyph name="uni00AD" format="1">
  <advance width="729"/>
  <unicode hex="00AD"/>
  <outline>
    <contour>
      <point x="161" y="832" type="line"/>
      <point x="650" y="832" type="line"/>
      <point x="669" y="1024" type="line"/>
      <point x="181" y="1024" type="line"/>
    </contour>
  </outline>
</glyph>
<glyph name="macron" format="1">
  <advance width="503"/>
  <unicode hex="00AF"/>
  <outline>
    <contour>
      <point x="152" y="1511" type="line"/>
      <point x="598" y="1511" type="line"/>
      <point x="614" y="1658" type="line"/>
      <point x="167" y="1658" type="line"/>
    </contour>
  </outline>
</glyph>
<glyph name="plusminus" format="1">
  <advance width="853"/>
  <unicode hex="00B1"/>
  <outline>
    <contour>
      <point x="320" y="364" type="line"/>
      <point x="510" y="364" type="line"/>
      <point x="532" y="575" type="line"/>
      <point x="740" y="575" type="line"/>
      <point x="759" y="760" type="line"/>
      <point x="551" y="760" type="line"/>
      <point x="573" y="971" type="line"/>
      <point x="383" y="971" type="line"/>
      <point x="362" y="760" type="line"/>
      <point x="154" y="760" type="line"/>
      <point x="134" y="575" type="line"/>
      <point x="342" y="575" type="line"/>
    </contour>
    <contour>
      <point x="74" y="0" type="line"/>
      <point x="679" y="0" type="line"/>
      <point x="699" y="188" type="line"/>
      <point x="93" y="188" type="line"/>
    </contour>
  </outline>
</glyph>
<glyph name="acute" format="1">
  <advance width="608"/>
  <unicode hex="00B4"/>
  <outline>
    <contour>
      <point x="197" y="1249" type="line"/>
      <point x="351" y="1249" type="line"/>
      <point x="638" y="1658" type="line"/>
      <point x="361" y="1658" type="line"/>
    </contour>
  </outline>
</glyph>
<glyph name="onequarter" format="1">
  <advance width="1565"/>
  <unicode hex="00BC"/>
  <outline>
    <contour>
      <point x="1118" y="1" type="line"/>
      <point x="1292" y="1" type="line"/>
      <point x="1317" y="235" type="line"/>
      <point x="1431" y="235" type="line"/>
      <point x="1445" y="367" type="line"/>
      <point x="1331" y="367" type="line"/>
      <point x="1384" y="877" type="line"/>
      <point x="1228" y="877" type="line"/>
      <point x="870" y="363" type="line"/>
      <point x="856" y="235" type="line"/>
      <point x="1142" y="235" type="line"/>
    </contour>
    <contour>
      <point x="271" y="829" type="line"/>
      <point x="456" y="829" type="line"/>
      <point x="543" y="1658" type="line"/>
      <point x="465" y="1658" type="line"/>
      <point x="402" y="1589"/>
      <point x="323" y="1535"/>
      <point x="220" y="1485" type="curve"/>
      <point x="206" y="1352" type="line"/>
      <point x="328" y="1374" type="line"/>
    </contour>
    <contour>
      <point x="283" y="0" type="line"/>
      <point x="468" y="0" type="line"/>
      <point x="1266" y="1658" type="line"/>
      <point x="1080" y="1658" type="line"/>
    </contour>
    <contour>
      <point x="1004" y="367" type="line"/>
      <point x="1186" y="644" type="line"/>
      <point x="1157" y="367" type="line"/>
    </contour>
  </outline>
</glyph>
<glyph name="questiondown" format="1">
  <advance width="1066"/>
  <unicode hex="00BF"/>
  <outline>
    <contour>
      <point x="478" y="-379" type="curve" smooth="yes"/>
      <point x="759" y="-379"/>
      <point x="923" y="-203"/>
      <point x="913" y="49" type="curve" smooth="yes"/>
      <point x="916" y="73"/>
      <point x="908" y="133"/>
      <point x="905" y="159" type="curve"/>
      <point x="647" y="108" type="line"/>
      <point x="651" y="93"/>
      <point x="655" y="39"/>
      <point x="653" y="22" type="curve"/>
      <point x="654" y="-73"/>
      <point x="599" y="-140"/>
      <point x="501" y="-140" type="curve" smooth="yes"/>
      <point x="407" y="-140"/>
      <point x="349" y="-72"/>
      <point x="358" y="35" type="curve" smooth="yes"/>
      <point x="378" y="269"/>
      <point x="575" y="461"/>
      <point x="770" y="621" type="curve"/>
      <point x="798" y="880" type="line"/>
      <point x="551" y="880" type="line"/>
      <point x="530" y="682" type="line"/>
      <point x="318" y="505"/>
      <point x="117" y="311"/>
      <point x="89" y="45" type="curve" smooth="yes"/>
      <point x="61" y="-221"/>
      <point x="198" y="-379"/>
    </contour>
    <contour>
      <point x="552" y="1035" type="line"/>
      <point x="824" y="1035" type="line"/>
      <point x="852" y="1303" type="line"/>
      <point x="580" y="1303" type="line"/>
    </contour>
  </outline>
</glyph>
<glyph name="Eth" format="1">
  <advance width="1086"/>
  <unicode hex="00D0"/>
  <outline>
    <contour>
      <point x="386" y="208" type="line"/>
      <point x="445" y="776" type="line"/>
      <point x="546" y="776" type="line"/>
      <point x="563" y="934" type="line"/>
      <point x="462" y="934" type="line"/>
      <point x="515" y="1446" type="line"/>
      <point x="601" y="1446" type="line" smooth="yes"/>
      <point x="808" y="1446"/>
      <point x="816" y="1362"/>
      <point x="794" y="1148" type="curve" smooth="yes"/>
      <point x="731" y="552" type="line" smooth="yes"/>
      <point x="707" y="325"/>
      <point x="692" y="208"/>
      <point x="475" y="208" type="curve" smooth="yes"/>
    </contour>
    <contour>
      <point x="68" y="0" type="line"/>
      <point x="464" y="0" type="line" smooth="yes"/>
      <point x="845" y="0"/>
      <point x="992" y="176"/>
      <point x="1030" y="544" type="curve" smooth="yes"/>
      <point x="1093" y="1142" type="line" smooth="yes"/>
      <point x="1131" y="1499"/>
      <point x="1022" y="1658"/>
      <point x="625" y="1658" type="curve" smooth="yes"/>
      <point x="242" y="1658" type="line"/>
      <point x="166" y="934" type="line"/>
      <point x="73" y="934" type="line"/>
      <point x="57" y="776" type="line"/>
      <point x="150" y="776" type="line"/>
    </contour>
  </outline>
</glyph>
<glyph name="multiply" format="1">
  <advance width="874"/>
  <unicode hex="00D7"/>
  <outline>
    <contour>
      <point x="241" y="499" type="line"/>
      <point x="460" y="698" type="line"/>
      <point x="640" y="499" type="line"/>
      <point x="784" y="630" type="line"/>
      <point x="605" y="830" type="line"/>
      <point x="826" y="1029" type="line"/>
      <point x="709" y="1161" type="line"/>
      <point x="488" y="962" type="line"/>
      <point x="310" y="1161" type="line"/>
      <point x="165" y="1029" type="line"/>
      <point x="343" y="830" type="line"/>
      <point x="123" y="630" type="line"/>
    </contour>
  </outline>
</glyph>
<glyph name="oslash" format="1">
  <advance width="919"/>
  <unicode hex="00F8"/>
  <outline>
    <contour>
      <point x="100" y="-197" type="line"/>
      <point x="844" y="1351" type="line"/>
      <point x="767" y="1380" type="line"/>
      <point x="31" y="-171" type="line"/>
    </contour>
    <component base="o" xOffset="37"/>
  </outline>
</glyph>
<glyph name="Dcroat" format="1">
  <advance width="1133"/>
  <unicode hex="0110"/>
  <outline>
    <contour>
      <point x="395" y="208" type="line"/>
      <point x="455" y="779" type="line"/>
      <point x="562" y="779" type="line"/>
      <point x="578" y="931" type="line"/>
      <point x="471" y="931" type="line"/>
      <point x="525" y="1446" type="line"/>
      <point x="616" y="1446" type="line" smooth="yes"/>
      <point x="823" y="1446"/>
      <point x="831" y="1362"/>
      <point x="810" y="1148" type="curve" smooth="yes"/>
      <point x="747" y="552" type="line" smooth="yes"/>
      <point x="722" y="325"/>
      <point x="708" y="208"/>
      <point x="490" y="208" type="curve" smooth="yes"/>
    </contour>
    <contour>
      <point x="81" y="0" type="line"/>
      <point x="476" y="0" type="line" smooth="yes"/>
      <point x="858" y="0"/>
      <point x="1005" y="176"/>
      <point x="1043" y="544" type="curve" smooth="yes"/>
      <point x="1106" y="1142" type="line" smooth="yes"/>
      <point x="1143" y="1499"/>
      <point x="1035" y="1658"/>
      <point x="637" y="1658" type="curve" smooth="yes"/>
      <point x="255" y="1658" type="line"/>
      <point x="179" y="931" type="line"/>
      <point x="80" y="931" type="line"/>
      <point x="64" y="779" type="line"/>
      <point x="163" y="779" type="line"/>
    </contour>
  </outline>
</glyph>
<glyph name="hbar" format="1">
  <advance width="974"/>
  <unicode hex="0127"/>
  <outline>
    <contour>
      <point x="63" y="0" type="line"/>
      <point x="337" y="0" type="line"/>
      <point x="435" y="936" type="line"/>
      <point x="483" y="970"/>
      <point x="534" y="995"/>
      <point x="574" y="996" type="curve" smooth="yes"/>
      <point x="642" y="996"/>
      <point x="649" y="952"/>
      <point x="642" y="885" type="curve" smooth="yes"/>
      <point x="549" y="0" type="line"/>
      <point x="823" y="0" type="line"/>
      <point x="923" y="948" type="line" smooth="yes"/>
      <point x="936" y="1072"/>
      <point x="904" y="1202"/>
      <point x="758" y="1202" type="curve" smooth="yes"/>
      <point x="643" y="1202"/>
      <point x="541" y="1147"/>
      <point x="449" y="1068" type="curve"/>
      <point x="483" y="1397" type="line"/>
      <point x="730" y="1397" type="line"/>
      <point x="745" y="1537" type="line"/>
      <point x="498" y="1537" type="line"/>
      <point x="511" y="1658" type="line"/>
      <point x="237" y="1658" type="line"/>
      <point x="224" y="1537" type="line"/>
      <point x="108" y="1537" type="line"/>
      <point x="94" y="1397" type="line"/>
      <point x="209" y="1397" type="line"/>
    </contour>
  </outline>
</glyph>
<glyph name="dotlessi" format="1">
  <advance width="512"/>
  <unicode hex="0131"/>
  <outline>
    <contour>
      <point x="73" y="0" type="line"/>
      <point x="347" y="0" type="line"/>
      <point x="471" y="1184" type="line"/>
      <point x="197" y="1184" type="line"/>
    </contour>
  </outline>
</glyph>
<glyph name="Eng" format="1">
  <advance width="1114"/>
  <unicode hex="014A"/>
  <outline>
    <contour>
      <point x="432" y="-404" type="line"/>
      <point x="541" y="-404" type="line" smooth="yes"/>
      <point x="827" y="-404"/>
      <point x="909" y="-264"/>
      <point x="937" y="0" type="curve" smooth="yes"/>
      <point x="1111" y="1658" type="line"/>
      <point x="875" y="1658" type="line"/>
      <point x="775" y="704" type="line"/>
      <point x="454" y="1658" type="line"/>
      <point x="251" y="1658" type="line"/>
      <point x="77" y="0" type="line"/>
      <point x="318" y="0" type="line"/>
      <point x="424" y="1000" type="line"/>
      <point x="718" y="120" type="line"/>
      <point x="707" y="5" type="line" smooth="yes"/>
      <point x="689" y="-161"/>
      <point x="653" y="-216"/>
      <point x="452" y="-216" type="curve"/>
    </contour>
  </outline>
</glyph>
<glyph name="tbar" format="1">
  <advance width="571"/>
  <unicode hex="0167"/>
  <outline>
    <contour>
      <point x="63" y="663" type="line"/>
      <point x="646" y="663" type="line"/>
      <point x="659" y="792" type="line"/>
      <point x="76" y="792" type="line"/>
    </contour>
    <component base="t" xOffset="-13"/>
  </outline>
</glyph>
<glyph name="florin" format="1">
  <advance width="843"/>
  <unicode hex="0192"/>
  <outline>
    <contour>
      <point x="87" y="-286" type="curve" smooth="yes"/>
      <point x="338" y="-286"/>
      <point x="404" y="-154"/>
      <point x="450" y="66" type="curve" smooth="yes"/>
      <point x="638" y="984" type="line"/>
      <point x="804" y="984" type="line"/>
      <point x="824" y="1184" type="line"/>
      <point x="680" y="1184" type="line"/>
      <point x="698" y="1274" type="line" smooth="yes"/>
      <point x="714" y="1351"/>
      <point x="744" y="1401"/>
      <point x="816" y="1401" type="curve" smooth="yes"/>
      <point x="839" y="1401"/>
      <point x="868" y="1393"/>
      <point x="889" y="1391" type="curve"/>
      <point x="931" y="1595" type="line"/>
      <point x="873" y="1602"/>
      <point x="838" y="1606"/>
      <point x="782" y="1606" type="curve" smooth="yes"/>
      <point x="532" y="1606"/>
      <point x="464" y="1472"/>
      <point x="420" y="1254" type="curve"/>
      <point x="405" y="1184" type="line"/>
      <point x="260" y="1184" type="line"/>
      <point x="239" y="984" type="line"/>
      <point x="364" y="984" type="line"/>
      <point x="171" y="46" type="line" smooth="yes"/>
      <point x="155" y="-31"/>
      <point x="127" y="-81"/>
      <point x="55" y="-81" type="curve" smooth="yes"/>
      <point x="32" y="-81"/>
      <point x="0" y="-75"/>
      <point x="-20" y="-71" type="curve"/>
      <point x="-62" y="-275" type="line"/>
      <point x="-3" y="-282"/>
      <point x="32" y="-286"/>
    </contour>
  </outline>
</glyph>
<glyph name="gravecomb" format="1">
  <advance width="182"/>
  <unicode hex="0300"/>
  <outline>
    <contour>
      <point x="275" y="1249" type="line"/>
      <point x="428" y="1249" type="line"/>
      <point x="350" y="1658" type="line"/>
      <point x="72" y="1658" type="line"/>
    </contour>
  </outline>
</glyph>
<glyph name="tildecomb" format="1">
  <advance width="881"/>
  <unicode hex="0303"/>
  <outline>
    <contour>
      <point x="702" y="1402" type="curve" smooth="yes"/>
      <point x="832" y="1405"/>
      <point x="874" y="1523"/>
      <point x="888" y="1658" type="curve"/>
      <point x="749" y="1658" type="line"/>
      <point x="744" y="1601"/>
      <point x="729" y="1575"/>
      <point x="693" y="1577" type="curve" smooth="yes"/>
      <point x="641" y="1580"/>
      <point x="535" y="1677"/>
      <point x="427" y="1673" type="curve" smooth="yes"/>
      <point x="289" y="1669"/>
      <point x="238" y="1565"/>
      <point x="223" y="1418" type="curve"/>
      <point x="367" y="1418" type="line"/>
      <point x="372" y="1471"/>
      <point x="389" y="1501"/>
      <point x="426" y="1501" type="curve" smooth="yes"/>
      <point x="494" y="1501"/>
      <point x="602" y="1399"/>
    </contour>
  </outline>
</glyph>
<glyph name="uni0308" format="1">
  <advance width="844"/>
  <unicode hex="0308"/>
  <outline>
    <contour>
      <point x="200" y="1396" type="line"/>
      <point x="449" y="1396" type="line"/>
      <point x="476" y="1658" type="line"/>
      <point x="227" y="1658" type="line"/>
    </contour>
    <contour>
      <point x="588" y="1396" type="line"/>
      <point x="838" y="1396" type="line"/>
      <point x="866" y="1658" type="line"/>
      <point x="616" y="1658" type="line"/>
    </contour>
  </outline>
</glyph>
<glyph name="uni030C" format="1">
  <advance width="243"/>
  <unicode hex="030C"/>
  <outline>
    <contour>
      <point x="138" y="1293" type="line"/>
      <point x="407" y="1293" type="line"/>
      <point x="625" y="1658" type="line"/>
      <point x="424" y="1658" type="line"/>
      <point x="286" y="1427" type="line"/>
      <point x="199" y="1658" type="line"/>
      <point x="-1" y="1658" type="line"/>
    </contour>
  </outline>
</glyph>
<glyph name="pi" format="1">
  <advance width="1149"/>
  <unicode hex="03C0"/>
  <outline>
    <contour>
      <point x="120" y="0" type="line"/>
      <point x="394" y="0" type="line"/>
      <point x="498" y="990" type="line"/>
      <point x="698" y="990" type="line"/>
      <point x="624" y="288" type="line" smooth="yes"/>
      <point x="603" y="81"/>
      <point x="677" y="-20"/>
      <point x="997" y="-20" type="curve"/>
      <point x="1032" y="182" type="line"/>
      <point x="911" y="182"/>
      <point x="890" y="215"/>
      <point x="909" y="390" type="curve" smooth="yes"/>
      <point x="972" y="990" type="line"/>
      <point x="1128" y="990" type="line"/>
      <point x="1148" y="1184" type="line"/>
      <point x="111" y="1184" type="line"/>
      <point x="92" y="990" type="line"/>
      <point x="224" y="990" type="line"/>
    </contour>
  </outline>
</glyph>
<glyph name="afii10058" format="1">
  <advance width="1759"/>
  <unicode hex="0409"/>
  <outline>
    <contour>
      <point x="-27" y="0" type="line"/>
      <point x="54" y="-1" type="line" smooth="yes"/>
      <point x="364" y="-10"/>
      <point x="501" y="193"/>
      <point x="580" y="679" type="curve" smooth="yes"/>
      <point x="704" y="1437" type="line"/>
      <point x="950" y="1437" type="line"/>
      <point x="799" y="0" type="line"/>
      <point x="1119" y="0" type="line" smooth="yes"/>
      <point x="1455" y="0"/>
      <point x="1661" y="113"/>
      <point x="1700" y="485" type="curve" smooth="yes"/>
      <point x="1739" y="853"/>
      <point x="1572" y="965"/>
      <point x="1224" y="965" type="curve" smooth="yes"/>
      <point x="1195" y="965" type="line"/>
      <point x="1268" y="1658" type="line"/>
      <point x="465" y="1658" type="line"/>
      <point x="303" y="681" type="line" smooth="yes"/>
      <point x="236" y="290"/>
      <point x="161" y="203"/>
      <point x="-4" y="214" type="curve"/>
    </contour>
    <contour>
      <point x="1116" y="203" type="line"/>
      <point x="1174" y="757" type="line"/>
      <point x="1194" y="757" type="line" smooth="yes"/>
      <point x="1394" y="757"/>
      <point x="1443" y="673"/>
      <point x="1425" y="489" type="curve" smooth="yes"/>
      <point x="1402" y="254"/>
      <point x="1317" y="203"/>
      <point x="1141" y="203" type="curve" smooth="yes"/>
    </contour>
  </outline>
</glyph>
<glyph name="afii10020" format="1">
  <advance width="854"/>
  <unicode hex="0413"/>
  <outline>
    <contour>
      <point x="77" y="0" type="line"/>
      <point x="372" y="0" type="line"/>
      <point x="524" y="1440" type="line"/>
      <point x="917" y="1440" type="line"/>
      <point x="939" y="1658" type="line"/>
      <point x="251" y="1658" type="line"/>
    </contour>
  </outline>
</glyph>
<glyph name="afii10024" format="1">
  <advance width="1490"/>
  <unicode hex="0416"/>
  <outline>
    <contour>
      <point x="-45" y="0" type="line"/>
      <point x="233" y="0" type="line"/>
      <point x="645" y="819" type="line"/>
      <point x="661" y="819" type="line"/>
      <point x="574" y="0" type="line"/>
      <point x="816" y="0" type="line"/>
      <point x="902" y="819" type="line"/>
      <point x="918" y="819" type="line"/>
      <point x="1158" y="0" type="line"/>
      <point x="1435" y="0" type="line"/>
      <point x="1156" y="841" type="line"/>
      <point x="1582" y="1658" type="line"/>
      <point x="1301" y="1658" type="line"/>
      <point x="922" y="867" type="line"/>
      <point x="907" y="867" type="line"/>
      <point x="990" y="1658" type="line"/>
      <point x="748" y="1658" type="line"/>
      <point x="666" y="867" type="line"/>
      <point x="651" y="867" type="line"/>
      <point x="438" y="1658" type="line"/>
      <point x="157" y="1658" type="line"/>
      <point x="411" y="841" type="line"/>
    </contour>
  </outline>
</glyph>
<glyph name="afii10028" format="1">
  <advance width="1099"/>
  <unicode hex="041A"/>
  <outline>
    <contour>
      <point x="77" y="0" type="line"/>
      <point x="372" y="0" type="line"/>
      <point x="454" y="776" type="line"/>
      <point x="516" y="776" type="line"/>
      <point x="726" y="0" type="line"/>
      <point x="1025" y="0" type="line"/>
      <point x="778" y="876" type="line"/>
      <point x="1171" y="1658" type="line"/>
      <point x="878" y="1658" type="line"/>
      <point x="535" y="956" type="line"/>
      <point x="473" y="956" type="line"/>
      <point x="546" y="1658" type="line"/>
      <point x="251" y="1658" type="line"/>
    </contour>
  </outline>
</glyph>
<glyph name="afii10029" format="1">
  <advance width="1252"/>
  <unicode hex="041B"/>
  <outline>
    <contour>
      <point x="-47" y="0" type="line"/>
      <point x="405" y="-32"/>
      <point x="488" y="229"/>
      <point x="577" y="774" type="curve" smooth="yes"/>
      <point x="684" y="1437" type="line"/>
      <point x="931" y="1437" type="line"/>
      <point x="780" y="0" type="line"/>
      <point x="1075" y="0" type="line"/>
      <point x="1249" y="1658" type="line"/>
      <point x="447" y="1658" type="line"/>
      <point x="302" y="800" type="line" smooth="yes"/>
      <point x="207" y="247"/>
      <point x="149" y="209"/>
      <point x="-24" y="214" type="curve"/>
    </contour>
  </outline>
</glyph>
<glyph name="afii10044" format="1">
  <advance width="1218"/>
  <unicode hex="042A"/>
  <outline>
    <contour>
      <point x="223" y="0" type="line"/>
      <point x="576" y="0" type="line" smooth="yes"/>
      <point x="913" y="0"/>
      <point x="1118" y="113"/>
      <point x="1157" y="485" type="curve" smooth="yes"/>
      <point x="1196" y="853"/>
      <point x="1030" y="965"/>
      <point x="682" y="965" type="curve" smooth="yes"/>
      <point x="620" y="965" type="line"/>
      <point x="692" y="1658" type="line"/>
      <point x="120" y="1658" type="line"/>
      <point x="98" y="1445" type="line"/>
      <point x="374" y="1445" type="line"/>
    </contour>
    <contour>
      <point x="540" y="203" type="line"/>
      <point x="598" y="757" type="line"/>
      <point x="652" y="757" type="line" smooth="yes"/>
      <point x="851" y="757"/>
      <point x="901" y="673"/>
      <point x="883" y="489" type="curve" smooth="yes"/>
      <point x="860" y="254"/>
      <point x="775" y="203"/>
      <point x="598" y="203" type="curve" smooth="yes"/>
    </contour>
  </outline>
</glyph>
<glyph name="afii10047" format="1">
  <advance width="1111"/>
  <unicode hex="042D"/>
  <outline>
    <contour>
      <point x="494" y="-2" type="curve" smooth="yes"/>
      <point x="859" y="-2"/>
      <point x="986" y="216"/>
      <point x="1022" y="560" type="curve"/>
      <point x="1083" y="1137" type="line"/>
      <point x="1117" y="1461"/>
      <point x="1038" y="1695"/>
      <point x="673" y="1695" type="curve" smooth="yes"/>
      <point x="326" y="1695"/>
      <point x="206" y="1486"/>
      <point x="174" y="1188" type="curve" smooth="yes"/>
      <point x="166" y="1112" type="line"/>
      <point x="450" y="1112" type="line"/>
      <point x="459" y="1197" type="line" smooth="yes"/>
      <point x="475" y="1354"/>
      <point x="492" y="1475"/>
      <point x="648" y="1475" type="curve" smooth="yes"/>
      <point x="779" y="1475"/>
      <point x="811" y="1396"/>
      <point x="790" y="1197" type="curve" smooth="yes"/>
      <point x="764" y="939" type="line"/>
      <point x="490" y="939" type="line"/>
      <point x="472" y="768" type="line"/>
      <point x="746" y="768" type="line"/>
      <point x="717" y="503" type="line" smooth="yes"/>
      <point x="700" y="339"/>
      <point x="676" y="217"/>
      <point x="516" y="217" type="curve" smooth="yes"/>
      <point x="353" y="217"/>
      <point x="369" y="336"/>
      <point x="384" y="480" type="curve" smooth="yes"/>
      <point x="393" y="563" type="line"/>
      <point x="108" y="563" type="line"/>
      <point x="99" y="477" type="line"/>
      <point x="68" y="183"/>
      <point x="159" y="-2"/>
    </contour>
  </outline>
</glyph>
<glyph name="afii10048" format="1">
  <advance width="1566"/>
  <unicode hex="042E"/>
  <outline>
    <contour>
      <point x="980" y="-20" type="curve" smooth="yes"/>
      <point x="1311" y="-20"/>
      <point x="1440" y="201"/>
      <point x="1475" y="537" type="curve" smooth="yes"/>
      <point x="1537" y="1127" type="line" smooth="yes"/>
      <point x="1573" y="1464"/>
      <point x="1490" y="1677"/>
      <point x="1159" y="1677" type="curve" smooth="yes"/>
      <point x="826" y="1677"/>
      <point x="700" y="1467"/>
      <point x="664" y="1127" type="curve" smooth="yes"/>
      <point x="646" y="955" type="line"/>
      <point x="461" y="955" type="line"/>
      <point x="534" y="1658" type="line"/>
      <point x="251" y="1658" type="line"/>
      <point x="77" y="0" type="line"/>
      <point x="360" y="0" type="line"/>
      <point x="437" y="735" type="line"/>
      <point x="623" y="735" type="line"/>
      <point x="603" y="537" type="line"/>
      <point x="567" y="198"/>
      <point x="647" y="-20"/>
    </contour>
    <contour>
      <point x="1004" y="200" type="curve" smooth="yes"/>
      <point x="859" y="200"/>
      <point x="849" y="311"/>
      <point x="864" y="458" type="curve" smooth="yes"/>
      <point x="942" y="1206" type="line" smooth="yes"/>
      <point x="958" y="1353"/>
      <point x="991" y="1458"/>
      <point x="1136" y="1458" type="curve" smooth="yes"/>
      <point x="1281" y="1458"/>
      <point x="1291" y="1353"/>
      <point x="1275" y="1206" type="curve" smooth="yes"/>
      <point x="1197" y="458" type="line" smooth="yes"/>
      <point x="1181" y="311"/>
      <point x="1148" y="200"/>
    </contour>
  </outline>
</glyph>
<glyph name="afii10067" format="1">
  <advance width="928"/>
  <unicode hex="0432"/>
  <outline>
    <contour>
      <point x="58" y="0" type="line"/>
      <point x="430" y="0" type="line" smooth="yes"/>
      <point x="728" y="0"/>
      <point x="834" y="127"/>
      <point x="856" y="344" type="curve" smooth="yes"/>
      <point x="871" y="486"/>
      <point x="845" y="612"/>
      <point x="692" y="646" type="curve"/>
      <point x="818" y="680"/>
      <point x="871" y="764"/>
      <point x="884" y="896" type="curve" smooth="yes"/>
      <point x="898" y="1055"/>
      <point x="841" y="1184"/>
      <point x="554" y="1184" type="curve" smooth="yes"/>
      <point x="182" y="1184" type="line"/>
    </contour>
    <contour>
      <point x="347" y="182" type="line"/>
      <point x="385" y="540" type="line"/>
      <point x="452" y="540" type="line" smooth="yes"/>
      <point x="542" y="540"/>
      <point x="607" y="536"/>
      <point x="588" y="353" type="curve" smooth="yes"/>
      <point x="572" y="195"/>
      <point x="493" y="182"/>
      <point x="407" y="182" type="curve" smooth="yes"/>
    </contour>
    <contour>
      <point x="403" y="715" type="line"/>
      <point x="434" y="1011" type="line"/>
      <point x="503" y="1011" type="line" smooth="yes"/>
      <point x="600" y="1011"/>
      <point x="642" y="970"/>
      <point x="631" y="868" type="curve" smooth="yes"/>
      <point x="620" y="757"/>
      <point x="575" y="715"/>
      <point x="493" y="715" type="curve" smooth="yes"/>
    </contour>
  </outline>
</glyph>
<glyph name="afii10072" format="1">
  <advance width="1265"/>
  <unicode hex="0436"/>
  <outline>
    <contour>
      <point x="-40" y="0" type="line"/>
      <point x="202" y="0" type="line"/>
      <point x="508" y="576" type="line"/>
      <point x="527" y="576" type="line"/>
      <point x="467" y="0" type="line"/>
      <point x="694" y="0" type="line"/>
      <point x="754" y="576" type="line"/>
      <point x="773" y="576" type="line"/>
      <point x="962" y="0" type="line"/>
      <point x="1204" y="0" type="line"/>
      <point x="995" y="600" type="line"/>
      <point x="1311" y="1184" type="line"/>
      <point x="1060" y="1184" type="line"/>
      <point x="777" y="616" type="line"/>
      <point x="758" y="616" type="line"/>
      <point x="818" y="1184" type="line"/>
      <point x="591" y="1184" type="line"/>
      <point x="531" y="616" type="line"/>
      <point x="513" y="616" type="line"/>
      <point x="353" y="1184" type="line"/>
      <point x="101" y="1184" type="line"/>
      <point x="291" y="600" type="line"/>
    </contour>
  </outline>
</glyph>
<glyph name="afii10074" format="1">
  <advance width="986"/>
  <unicode hex="0438"/>
  <outline>
    <contour>
      <point x="58" y="0" type="line"/>
      <point x="276" y="0" type="line"/>
      <point x="681" y="718" type="line"/>
      <point x="605" y="0" type="line"/>
      <point x="829" y="0" type="line"/>
      <point x="953" y="1184" type="line"/>
      <point x="739" y="1184" type="line"/>
      <point x="331" y="469" type="line"/>
      <point x="406" y="1184" type="line"/>
      <point x="182" y="1184" type="line"/>
    </contour>
  </outline>
</glyph>
<glyph name="afii10081" format="1">
  <advance width="970"/>
  <unicode hex="043F"/>
  <outline>
    <contour>
      <point x="58" y="0" type="line"/>
      <point x="332" y="0" type="line"/>
      <point x="436" y="986" type="line"/>
      <point x="642" y="986" type="line"/>
      <point x="538" y="0" type="line"/>
      <point x="812" y="0" type="line"/>
      <point x="936" y="1184" type="line"/>
      <point x="182" y="1184" type="line"/>
    </contour>
  </outline>
</glyph>
<glyph name="afii10095" format="1">
  <advance width="899"/>
  <unicode hex="044D"/>
  <outline>
    <contour>
      <point x="388" y="-18" type="curve" smooth="yes"/>
      <point x="669" y="-18"/>
      <point x="780" y="151"/>
      <point x="809" y="424" type="curve"/>
      <point x="844" y="758" type="line" smooth="yes"/>
      <point x="873" y="1031"/>
      <point x="798" y="1202"/>
      <point x="516" y="1202" type="curve" smooth="yes"/>
      <point x="265" y="1202"/>
      <point x="147" y="1072"/>
      <point x="122" y="831" type="curve" smooth="yes"/>
      <point x="115" y="772" type="line"/>
      <point x="371" y="772" type="line"/>
      <point x="378" y="843" type="line" smooth="yes"/>
      <point x="388" y="940"/>
      <point x="410" y="1002"/>
      <point x="492" y="1002" type="curve" smooth="yes"/>
      <point x="566" y="1002"/>
      <point x="591" y="965"/>
      <point x="574" y="805" type="curve" smooth="yes"/>
      <point x="558" y="656" type="line"/>
      <point x="285" y="656" type="line"/>
      <point x="270" y="520" type="line"/>
      <point x="544" y="520" type="line"/>
      <point x="530" y="385" type="line" smooth="yes"/>
      <point x="514" y="230"/>
      <point x="488" y="180"/>
      <point x="406" y="180" type="curve" smooth="yes"/>
      <point x="333" y="180"/>
      <point x="312" y="223"/>
      <point x="325" y="346" type="curve" smooth="yes"/>
      <point x="330" y="391" type="line"/>
      <point x="75" y="391" type="line"/>
      <point x="70" y="347" type="line"/>
      <point x="45" y="101"/>
      <point x="131" y="-18"/>
    </contour>
  </outline>
</glyph>
<glyph name="afii10107" format="1">
  <advance width="1376"/>
  <unicode hex="045A"/>
  <outline>
    <contour>
      <point x="58" y="0" type="line"/>
      <point x="332" y="0" type="line"/>
      <point x="385" y="502" type="line"/>
      <point x="593" y="502" type="line"/>
      <point x="540" y="1" type="line"/>
      <point x="814" y="1" type="line"/>
      <point x="1149" y="4"/>
      <point x="1289" y="90"/>
      <point x="1317" y="349" type="curve" smooth="yes"/>
      <point x="1345" y="628"/>
      <point x="1212" y="692"/>
      <point x="908" y="698" type="curve" smooth="yes"/>
      <point x="903" y="698"/>
      <point x="892" y="698"/>
      <point x="887" y="698" type="curve"/>
      <point x="938" y="1185" type="line"/>
      <point x="664" y="1185" type="line"/>
      <point x="614" y="706" type="line"/>
      <point x="406" y="706" type="line"/>
      <point x="456" y="1184" type="line"/>
      <point x="182" y="1184" type="line"/>
    </contour>
    <contour>
      <point x="831" y="159" type="curve"/>
      <point x="870" y="537" type="line"/>
      <point x="874" y="537"/>
      <point x="878" y="536"/>
      <point x="882" y="536" type="curve" smooth="yes"/>
      <point x="1040" y="531"/>
      <point x="1084" y="488"/>
      <point x="1069" y="349" type="curve" smooth="yes"/>
      <point x="1053" y="201"/>
      <point x="994" y="164"/>
      <point x="841" y="160" type="curve" smooth="yes"/>
      <point x="838" y="159"/>
      <point x="834" y="159"/>
    </contour>
  </outline>
</glyph>
<glyph name="uni04B0" format="1">
  <advance width="1007"/>
  <unicode hex="04B0"/>
  <outline>
    <contour>
      <point x="60" y="600" type="line"/>
      <point x="914" y="600" type="line"/>
      <point x="934" y="792" type="line"/>
      <point x="80" y="792" type="line"/>
    </contour>
    <component base="uni04AE" xOffset="-6"/>
  </outline>
</glyph>
<glyph name="uni04E8" format="1">
  <advance width="1146"/>
  <unicode hex="04E8"/>
  <outline>
    <contour>
      <point x="238" y="748" type="line"/>
      <point x="897" y="748" type="line"/>
      <point x="918" y="940" type="line"/>
      <point x="258" y="940" type="line"/>
    </contour>
    <component base="O" xOffset="-18"/>
  </outline>
</glyph>
<glyph name="quotedblright" format="1">
  <advance width="970"/>
  <unicode hex="201D"/>
  <outline>
    <contour>
      <point x="278" y="1088" type="line"/>
      <point x="450" y="1088"/>
      <point x="518" y="1216"/>
      <point x="546" y="1444" type="curve" smooth="yes"/>
      <point x="549" y="1463"/>
      <point x="566" y="1633"/>
      <point x="569" y="1657" type="curve"/>
      <point x="297" y="1657" type="line"/>
      <point x="270" y="1399" type="line"/>
      <point x="396" y="1399" type="line"/>
      <point x="381" y="1257"/>
      <point x="349" y="1183"/>
      <point x="256" y="1183" type="curve"/>
    </contour>
    <contour>
      <point x="679" y="1088" type="line"/>
      <point x="851" y="1088"/>
      <point x="919" y="1216"/>
      <point x="947" y="1444" type="curve" smooth="yes"/>
      <point x="949" y="1463"/>
      <point x="967" y="1633"/>
      <point x="969" y="1657" type="curve"/>
      <point x="698" y="1657" type="line"/>
      <point x="671" y="1399" type="line"/>
      <point x="796" y="1399" type="line"/>
      <point x="782" y="1257"/>
      <point x="750" y="1183"/>
      <point x="656" y="1183" type="curve"/>
    </contour>
  </outline>
</glyph>
<glyph name="guilsinglright" format="1">
  <advance width="578"/>
  <unicode hex="203A"/>
  <outline>
    <contour>
      <point x="67" y="138" type="line"/>
      <point x="534" y="614" type="line"/>
      <point x="546" y="732" type="line"/>
      <point x="179" y="1209" type="line"/>
      <point x="147" y="902" type="line"/>
      <point x="355" y="674" type="line"/>
      <point x="99" y="445" type="line"/>
    </contour>
  </outline>
</glyph>
<glyph name="Euro" format="1">
  <advance width="1070"/>
  <unicode hex="20AC"/>
  <outline>
    <contour>
      <point x="521" y="-20" type="curve" smooth="yes"/>
      <point x="869" y="-20"/>
      <point x="989" y="189"/>
      <point x="1020" y="487" type="curve"/>
      <point x="1028" y="557" type="line"/>
      <point x="743" y="557" type="line"/>
      <point x="735" y="478" type="line" smooth="yes"/>
      <point x="718" y="321"/>
      <point x="703" y="200"/>
      <point x="546" y="200" type="curve" smooth="yes"/>
      <point x="415" y="200"/>
      <point x="383" y="279"/>
      <point x="404" y="478" type="curve" smooth="yes"/>
      <point x="420" y="626" type="line"/>
      <point x="618" y="626" type="line"/>
      <point x="630" y="751" type="line"/>
      <point x="432" y="751" type="line"/>
      <point x="449" y="914" type="line"/>
      <point x="647" y="914" type="line"/>
      <point x="661" y="1039" type="line"/>
      <point x="463" y="1039" type="line"/>
      <point x="476" y="1172" type="line" smooth="yes"/>
      <point x="494" y="1336"/>
      <point x="518" y="1458"/>
      <point x="679" y="1458" type="curve" smooth="yes"/>
      <point x="841" y="1458"/>
      <point x="825" y="1339"/>
      <point x="810" y="1195" type="curve" smooth="yes"/>
      <point x="801" y="1104" type="line"/>
      <point x="1085" y="1104" type="line"/>
      <point x="1095" y="1198" type="line" smooth="yes"/>
      <point x="1126" y="1492"/>
      <point x="1035" y="1677"/>
      <point x="700" y="1677" type="curve" smooth="yes"/>
      <point x="335" y="1677"/>
      <point x="208" y="1459"/>
      <point x="172" y="1115" type="curve"/>
      <point x="164" y="1039" type="line"/>
      <point x="52" y="1039" type="line"/>
      <point x="39" y="914" type="line"/>
      <point x="150" y="914" type="line"/>
      <point x="133" y="751" type="line"/>
      <point x="22" y="751" type="line"/>
      <point x="9" y="626" type="line"/>
      <point x="121" y="626" type="line"/>
      <point x="111" y="538" type="line"/>
      <point x="77" y="214"/>
      <point x="157" y="-20"/>
    </contour>
  </outline>
</glyph>
<glyph name="uni2219" format="1">
  <advance width="394"/>
  <unicode hex="2219"/>
  <outline>
    <contour>
      <point x="82" y="638" type="line"/>
      <point x="349" y="638" type="line"/>
      <point x="376" y="903" type="line"/>
      <point x="109" y="903" type="line"/>
    </contour>
  </outline>
</glyph>
<glyph name="infinity" format="1">
  <advance width="1316"/>
  <unicode hex="221E"/>
  <outline>
    <contour>
      <point x="327" y="205" type="curve" smooth="yes"/>
      <point x="468" y="205"/>
      <point x="573" y="287"/>
      <point x="661" y="375" type="curve"/>
      <point x="726" y="294"/>
      <point x="811" y="220"/>
      <point x="938" y="223" type="curve"/>
      <point x="1130" y="228"/>
      <point x="1257" y="366"/>
      <point x="1277" y="557" type="curve" smooth="yes"/>
      <point x="1297" y="748"/>
      <point x="1199" y="887"/>
      <point x="1008" y="891" type="curve"/>
      <point x="881" y="894"/>
      <point x="782" y="821"/>
      <point x="699" y="739" type="curve"/>
      <point x="629" y="828"/>
      <point x="542" y="910"/>
      <point x="401" y="910" type="curve" smooth="yes"/>
      <point x="193" y="910"/>
      <point x="77" y="747"/>
      <point x="57" y="557" type="curve" smooth="yes"/>
      <point x="37" y="367"/>
      <point x="119" y="205"/>
    </contour>
    <contour>
      <point x="348" y="429" type="curve" smooth="yes"/>
      <point x="286" y="425"/>
      <point x="238" y="474"/>
      <point x="247" y="557" type="curve" smooth="yes"/>
      <point x="256" y="640"/>
      <point x="314" y="689"/>
      <point x="374" y="685" type="curve" smooth="yes"/>
      <point x="427" y="683"/>
      <point x="487" y="647"/>
      <point x="561" y="557" type="curve"/>
      <point x="468" y="468"/>
      <point x="398" y="432"/>
    </contour>
    <contour>
      <point x="971" y="445" type="curve" smooth="yes"/>
      <point x="924" y="444"/>
      <point x="876" y="472"/>
      <point x="804" y="557" type="curve"/>
      <point x="894" y="643"/>
      <point x="948" y="671"/>
      <point x="994" y="670" type="curve" smooth="yes"/>
      <point x="1041" y="670"/>
      <point x="1092" y="637"/>
      <point x="1084" y="557" type="curve" smooth="yes"/>
      <point x="1076" y="478"/>
      <point x="1018" y="444"/>
    </contour>
  </outline>
</glyph>
<glyph name="integral" format="1">
  <advance width="689"/>
  <unicode hex="222B"/>
  <outline>
    <contour>
      <point x="89" y="-389" type="curve" smooth="yes"/>
      <point x="340" y="-389"/>
      <point x="394" y="-257"/>
      <point x="417" y="-38" type="curve" smooth="yes"/>
      <point x="562" y="1349" type="line" smooth="yes"/>
      <point x="570" y="1426"/>
      <point x="596" y="1475"/>
      <point x="667" y="1475" type="curve" smooth="yes"/>
      <point x="691" y="1475"/>
      <point x="720" y="1468"/>
      <point x="742" y="1465" type="curve"/>
      <point x="763" y="1669" type="line"/>
      <point x="704" y="1676"/>
      <point x="669" y="1680"/>
      <point x="614" y="1680" type="curve" smooth="yes"/>
      <point x="364" y="1680"/>
      <point x="309" y="1547"/>
      <point x="286" y="1328" type="curve" smooth="yes"/>
      <point x="140" y="-57" type="line" smooth="yes"/>
      <point x="132" y="-134"/>
      <point x="108" y="-184"/>
      <point x="37" y="-184" type="curve" smooth="yes"/>
      <point x="14" y="-184"/>
      <point x="-19" y="-178"/>
      <point x="-39" y="-175" type="curve"/>
      <point x="-61" y="-379" type="line"/>
      <point x="0" y="-386"/>
      <point x="34" y="-389"/>
    </contour>
  </outline>
</glyph>
<glyph name="approxequal" format="1">
  <advance width="956"/>
  <unicode hex="2248"/>
  <outline>
    <contour>
      <point x="639" y="468" type="curve" smooth="yes"/>
      <point x="724" y="468"/>
      <point x="846" y="574"/>
      <point x="905" y="653" type="curve"/>
      <point x="820" y="766" type="line"/>
      <point x="765" y="720"/>
      <point x="705" y="677"/>
      <point x="666" y="677" type="curve" smooth="yes"/>
      <point x="579" y="677"/>
      <point x="467" y="795"/>
      <point x="357" y="795" type="curve" smooth="yes"/>
      <point x="278" y="795"/>
      <point x="153" y="696"/>
      <point x="90" y="627" type="curve"/>
      <point x="169" y="502" type="line"/>
      <point x="223" y="551"/>
      <point x="291" y="588"/>
      <point x="326" y="588" type="curve" smooth="yes"/>
      <point x="413" y="588"/>
      <point x="528" y="468"/>
    </contour>
    <contour>
      <point x="682" y="877" type="curve" smooth="yes"/>
      <point x="768" y="877"/>
      <point x="889" y="983"/>
      <point x="948" y="1061" type="curve"/>
      <point x="863" y="1174" type="line"/>
      <point x="807" y="1129"/>
      <point x="748" y="1086"/>
      <point x="709" y="1086" type="curve" smooth="yes"/>
      <point x="622" y="1086"/>
      <point x="509" y="1204"/>
      <point x="400" y="1204" type="curve" smooth="yes"/>
      <point x="321" y="1204"/>
      <point x="196" y="1104"/>
      <point x="133" y="1035" type="curve"/>
      <point x="213" y="911" type="line"/>
      <point x="265" y="960"/>
      <point x="333" y="997"/>
      <point x="369" y="997" type="curve" smooth="yes"/>
      <point x="456" y="997"/>
      <point x="572" y="877"/>
    </contour>
  </outline>
</glyph>
<glyph name="notequal" format="1">
  <advance width="884"/>
  <unicode hex="2260"/>
  <outline>
    <contour>
      <point x="65" y="0" type="line"/>
      <point x="261" y="0" type="line"/>
      <point x="471" y="545" type="line"/>
      <point x="773" y="545" type="line"/>
      <point x="793" y="733" type="line"/>
      <point x="543" y="733" type="line"/>
      <point x="616" y="921" type="line"/>
      <point x="812" y="921" type="line"/>
      <point x="832" y="1109" type="line"/>
      <point x="689" y="1109" type="line"/>
      <point x="901" y="1658" type="line"/>
      <point x="705" y="1658" type="line"/>
      <point x="493" y="1109" type="line"/>
      <point x="192" y="1109" type="line"/>
      <point x="172" y="921" type="line"/>
      <point x="420" y="921" type="line"/>
      <point x="348" y="733" type="line"/>
      <point x="152" y="733" type="line"/>
      <point x="133" y="545" type="line"/>
      <point x="275" y="545" type="line"/>
    </contour>
  </outline>
</glyph>
<glyph name="greaterequal" format="1">
  <advance width="827"/>
  <unicode hex="2265"/>
  <outline>
    <contour>
      <point x="94" y="269" type="line"/>
      <point x="747" y="693" type="line"/>
      <point x="773" y="940" type="line"/>
      <point x="209" y="1365" type="line"/>
      <point x="182" y="1107" type="line"/>
      <point x="558" y="818" type="line"/>
      <point x="121" y="526" type="line"/>
    </contour>
    <contour>
      <point x="60" y="5" type="line"/>
      <point x="705" y="5" type="line"/>
      <point x="723" y="173" type="line"/>
      <point x="78" y="173" type="line"/>
    </contour>
  </outline>
</glyph>
